<?xml version="1.0" encoding="UTF-8" standalone="no"?>
<!-- Created with Inkscape (http://www.inkscape.org/) -->

<svg
   width="45.978069mm"
   height="49.869308mm"
   viewBox="0 0 45.978069 49.869308"
   version="1.1"
   id="svg21"
   xmlns="http://www.w3.org/2000/svg"
   xmlns:svg="http://www.w3.org/2000/svg">
  <defs
     id="defs18" />
  <g
     id="layer1"
     transform="translate(-62.77963,-41.573691)">
    <path
       id="rect862"
       style="fill:#000000;stroke-width:0.264583"
       d="m 71.86228,41.57369 c -0.339103,0 -0.612365,0.272745 -0.612365,0.611849 v 3.279386 h -3.06803 c -2.992727,0 -5.402254,2.409528 -5.402254,5.402254 v 35.173564 c 0,2.992726 2.409527,5.402254 5.402254,5.402254 h 35.173565 c 2.99273,0 5.40225,-2.409528 5.40225,-5.402254 V 50.867179 c 0,-2.992726 -2.40952,-5.402254 -5.40225,-5.402254 h -2.13476 v -3.279386 c 0,-0.339104 -0.27326,-0.611849 -0.61236,-0.611849 h -0.642339 c -0.339104,0 -0.611849,0.272745 -0.611849,0.611849 v 3.279386 H 73.116467 v -3.279386 c 0,-0.339104 -0.272745,-0.611849 -0.611849,-0.611849 z m -3.40341,5.290116 h 3.40341 0.642338 27.461373 0.642339 2.46962 c 2.3714,0 4.28087,1.90893 4.28087,4.280359 v 1.102258 H 64.269462 c -0.03125,0 -0.0617,0.0044 -0.09095,0.01085 v -1.11311 c 0,-2.371429 1.908932,-4.280359 4.280358,-4.280359 z m -4.280358,6.220809 c 0.02926,0.0064 0.0597,0.01085 0.09095,0.01085 h 43.089358 v 32.667774 c 0,2.371426 -1.90947,4.280875 -4.28087,4.280875 H 68.45887 c -2.371426,0 -4.280358,-1.909449 -4.280358,-4.280875 z" />
    <path
       id="path1128"
       style="fill:#000080;stroke-width:0.455334"
       d="M 85.76911,56.868071 A 14.518687,14.518686 0 0 0 71.646609,68.036232 H 73.71696 A 12.518109,12.518108 0 0 1 85.76911,58.869056 12.518109,12.518108 0 0 1 98.287269,71.387214 12.518109,12.518108 0 0 1 85.76911,83.90537 12.518109,12.518108 0 0 1 73.71696,74.737306 h -2.466991 v 10.750176 h 1.826676 V 78.422673 A 14.518687,14.518686 0 0 0 85.76911,85.905465 14.518687,14.518686 0 0 0 100.28736,71.387214 14.518687,14.518686 0 0 0 85.76911,56.868071 Z" />
  </g>
</svg>
